<svg width="96" height="96" viewBox="0 0 96 96" fill="none" xmlns="http://www.w3.org/2000/svg">
<path d="M38.4 67.2C39.76 67.2 40.9008 66.7392 41.8224 65.8176C42.7408 64.8992 43.2 63.76 43.2 62.4V33.48C43.2 32.12 42.7408 31 41.8224 30.12C40.9008 29.24 39.76 28.8 38.4 28.8C37.04 28.8 35.9008 29.2592 34.9824 30.1776C34.0608 31.0992 33.6 32.24 33.6 33.6V62.52C33.6 63.88 34.0608 65 34.9824 65.88C35.9008 66.76 37.04 67.2 38.4 67.2ZM57.6 67.2C58.96 67.2 60.1008 66.7392 61.0224 65.8176C61.9408 64.8992 62.4 63.76 62.4 62.4V33.48C62.4 32.12 61.9408 31 61.0224 30.12C60.1008 29.24 58.96 28.8 57.6 28.8C56.24 28.8 55.1008 29.2592 54.1824 30.1776C53.2608 31.0992 52.8 32.24 52.8 33.6V62.52C52.8 63.88 53.2608 65 54.1824 65.88C55.1008 66.76 56.24 67.2 57.6 67.2ZM48 96C41.36 96 35.12 94.7392 29.28 92.2176C23.44 89.6992 18.36 86.28 14.04 81.96C9.72 77.64 6.3008 72.56 3.7824 66.72C1.2608 60.88 0 54.64 0 48C0 41.36 1.2608 35.12 3.7824 29.28C6.3008 23.44 9.72 18.36 14.04 14.04C18.36 9.72 23.44 6.2992 29.28 3.7776C35.12 1.2592 41.36 0 48 0C54.64 0 60.88 1.2592 66.72 3.7776C72.56 6.2992 77.64 9.72 81.96 14.04C86.28 18.36 89.6992 23.44 92.2176 29.28C94.7392 35.12 96 41.36 96 48C96 54.64 94.7392 60.88 92.2176 66.72C89.6992 72.56 86.28 77.64 81.96 81.96C77.64 86.28 72.56 89.6992 66.72 92.2176C60.88 94.7392 54.64 96 48 96ZM48 86.4C58.64 86.4 67.7008 82.6608 75.1824 75.1824C82.6608 67.7008 86.4 58.64 86.4 48C86.4 37.36 82.6608 28.2992 75.1824 20.8176C67.7008 13.3392 58.64 9.6 48 9.6C37.36 9.6 28.3008 13.3392 20.8224 20.8176C13.3408 28.2992 9.6 37.36 9.6 48C9.6 58.64 13.3408 67.7008 20.8224 75.1824C28.3008 82.6608 37.36 86.4 48 86.4Z" fill="white"/>
</svg>
