<svg width="96" height="96" viewBox="0 0 96 96" fill="none" xmlns="http://www.w3.org/2000/svg">
<path d="M36 35.16V60.84C36 62.76 36.84 64.16 38.52 65.04C40.2 65.92 41.84 65.84 43.44 64.8L63.36 52.08C64.88 51.2 65.64 49.84 65.64 48C65.64 46.16 64.88 44.8 63.36 43.92L43.44 31.2C41.84 30.16 40.2 30.08 38.52 30.96C36.84 31.84 36 33.24 36 35.16ZM48 96C41.36 96 35.12 94.7392 29.28 92.2176C23.44 89.6992 18.36 86.28 14.04 81.96C9.72 77.64 6.3008 72.56 3.7824 66.72C1.2608 60.88 0 54.64 0 48C0 41.36 1.2608 35.12 3.7824 29.28C6.3008 23.44 9.72 18.36 14.04 14.04C18.36 9.72 23.44 6.2992 29.28 3.7776C35.12 1.2592 41.36 0 48 0C54.64 0 60.88 1.2592 66.72 3.7776C72.56 6.2992 77.64 9.72 81.96 14.04C86.28 18.36 89.6992 23.44 92.2176 29.28C94.7392 35.12 96 41.36 96 48C96 54.64 94.7392 60.88 92.2176 66.72C89.6992 72.56 86.28 77.64 81.96 81.96C77.64 86.28 72.56 89.6992 66.72 92.2176C60.88 94.7392 54.64 96 48 96ZM48 86.4C58.64 86.4 67.7008 82.6608 75.1824 75.1824C82.6608 67.7008 86.4 58.64 86.4 48C86.4 37.36 82.6608 28.2992 75.1824 20.8176C67.7008 13.3392 58.64 9.6 48 9.6C37.36 9.6 28.3008 13.3392 20.8224 20.8176C13.3408 28.2992 9.6 37.36 9.6 48C9.6 58.64 13.3408 67.7008 20.8224 75.1824C28.3008 82.6608 37.36 86.4 48 86.4Z" fill="white"/>
</svg>
